<svg width="22" height="25" viewBox="0 0 22 25" fill="none" xmlns="http://www.w3.org/2000/svg">
<g id="instagram-brands-solid" clip-path="url(#clip0_4_158)">
<path id="Vector" d="M11.0047 17.724C8.02341 17.724 5.61873 15.3193 5.61873 12.338C5.61873 9.35679 8.02341 6.9521 11.0047 6.9521C13.9859 6.9521 16.3906 9.35679 16.3906 12.338C16.3906 15.3193 13.9859 17.724 11.0047 17.724ZM11.0047 8.83647C9.0781 8.83647 7.5031 10.4068 7.5031 12.338C7.5031 14.2693 9.07341 15.8396 11.0047 15.8396C12.9359 15.8396 14.5062 14.2693 14.5062 12.338C14.5062 10.4068 12.9312 8.83647 11.0047 8.83647ZM17.8672 17.9443C17.8672 17.2458 17.3047 16.688 16.6109 16.688C15.9125 16.688 15.3547 17.2505 15.3547 17.9443C15.3547 18.638 15.9172 19.2005 16.6109 19.2005C17.3047 19.2005 17.8672 18.638 17.8672 17.9443ZM21.4344 16.6693C21.3547 18.3521 20.9703 19.8427 19.7375 21.0708C18.5094 22.299 17.0187 22.6833 15.3359 22.7677C13.6015 22.8662 8.4031 22.8662 6.66873 22.7677C4.9906 22.688 3.49998 22.3037 2.26716 21.0755C1.03435 19.8474 0.654663 18.3568 0.570288 16.674C0.471851 14.9396 0.471851 9.74116 0.570288 8.00679C0.649976 6.32398 1.03435 4.83335 2.26716 3.60522C3.49998 2.3771 4.98591 1.99273 6.66873 1.90835C8.4031 1.80991 13.6015 1.80991 15.3359 1.90835C17.0187 1.98804 18.5094 2.37241 19.7375 3.60522C20.9656 4.83335 21.35 6.32398 21.4344 8.00679C21.5328 9.74116 21.5328 14.9349 21.4344 16.6693ZM19.1937 6.14585C18.8281 5.2271 18.1203 4.51929 17.1969 4.14897C15.814 3.60054 12.5328 3.7271 11.0047 3.7271C9.47654 3.7271 6.1906 3.60522 4.81248 4.14897C3.89373 4.5146 3.18591 5.22241 2.8156 6.14585C2.26716 7.52866 2.39373 10.8099 2.39373 12.338C2.39373 13.8662 2.27185 17.1521 2.8156 18.5302C3.18123 19.449 3.88904 20.1568 4.81248 20.5271C6.19529 21.0755 9.47654 20.949 11.0047 20.949C12.5328 20.949 15.8187 21.0708 17.1969 20.5271C18.1156 20.1615 18.8234 19.4537 19.1937 18.5302C19.7422 17.1474 19.6156 13.8662 19.6156 12.338C19.6156 10.8099 19.7422 7.52398 19.1937 6.14585Z" fill="white"/>
</g>
<defs>
<clipPath id="clip0_4_158">
<rect width="21" height="24" fill="white" transform="matrix(1 0 0 -1 0.5 24.3334)"/>
</clipPath>
</defs>
</svg>
