<svg width="18" height="19" viewBox="0 0 18 19" fill="none" xmlns="http://www.w3.org/2000/svg">
<g id="twitter-brands-solid" clip-path="url(#clip0_4_155)">
<path id="Vector" d="M16.1508 5.66658C16.1613 5.82478 16.1613 5.9865 16.1613 6.1447C16.1613 11.0209 12.4488 16.6424 5.66367 16.6424C3.57188 16.6424 1.63125 16.0377 0 14.9865C0.295312 15.0217 0.583594 15.0322 0.889453 15.0322C2.61562 15.0322 4.20117 14.4486 5.47031 13.4572C3.84961 13.422 2.48906 12.3603 2.02148 10.8978C2.25 10.933 2.47852 10.9541 2.71758 10.9541C3.04805 10.9541 3.37852 10.9084 3.68789 10.8275C1.99688 10.4865 0.73125 8.99939 0.73125 7.20642V7.16072C1.22344 7.43494 1.79297 7.6072 2.39766 7.6283C1.40273 6.96736 0.752344 5.83533 0.752344 4.55564C0.752344 3.87009 0.935156 3.2408 1.25508 2.69236C3.07266 4.93181 5.80078 6.39431 8.86289 6.55251C8.80664 6.2783 8.77148 5.99353 8.77148 5.70876C8.77148 3.67673 10.4168 2.02087 12.4594 2.02087C13.5211 2.02087 14.4809 2.46736 15.1559 3.18455C15.9891 3.02634 16.7906 2.71697 17.4973 2.29509C17.223 3.15291 16.6395 3.87009 15.8766 4.32712C16.6184 4.24626 17.3391 4.04236 18 3.75759C17.4973 4.48884 16.868 5.13923 16.1508 5.66658Z" fill="white"/>
</g>
<defs>
<clipPath id="clip0_4_155">
<rect width="18" height="18" fill="white" transform="translate(0 0.333374)"/>
</clipPath>
</defs>
</svg>
